dataset
version=1
nRows=16
nColumns=39
inDegrees=no
endheader
time	sternoclavicular_r2	sternoclavicular_r3	unrotscap_r3	unrotscap_r2	acromioclavicular_r2	acromioclavicular_r3	acromioclavicular_r1	unrothum_r1	unrothum_r3	unrothum_r2	elv_angle	shoulder_elv	shoulder1_r2	shoulder_rot	elbow_flexion	pro_sup	deviation	flexion	cmc_abduction	cmc_flexion	mp_flexion	ip_flexion	mcp2_flexion	mcp2_abduction	pm2_flexion	md2_flexion	mcp3_flexion	mcp3_abduction	pm3_flexion	md3_flexion	mcp4_flexion	mcp4_abduction	pm4_flexion	md4_flexion	mcp5_flexion	mcp5_abduction	pm5_flexion	md5_flexion
0.000000	-0.017114	-0.317392	0.162141	0.062008	0.039585	0.108904	-0.125539	-0.085383	0.007941	0.098240	0.065486	0.027437	0.146525	0.146525	1.335007	0.917566	0.000000	0.000000	0.000000	0.000000	0.000000	0.000000	0.000000	0.000000	0.000000	0.000000	0.000000	0.000000	0.000000	0.000000	0.000000	0.000000	0.000000	0.000000	0.000000	0.000000	0.000000	0.000000
0.005000	-0.017165	-0.317298	0.162359	0.062414	0.039935	0.109222	-0.125582	-0.085565	0.008612	0.098530	0.065927	0.027437	0.146525	0.146525	1.335084	0.922478	0.000000	0.000000	0.000000	0.000000	0.000000	0.000000	0.000000	0.000000	0.000000	0.000000	0.000000	0.000000	0.000000	0.000000	0.000000	0.000000	0.000000	0.000000	0.000000	0.000000	0.000000	0.000000
0.010000	-0.017212	-0.317182	0.162500	0.062806	0.040280	0.109495	-0.125563	-0.085877	0.009429	0.098833	0.066400	0.027437	0.146525	0.146525	1.335198	0.927330	0.000000	0.000000	0.000000	0.000000	0.000000	0.000000	0.000000	0.000000	0.000000	0.000000	0.000000	0.000000	0.000000	0.000000	0.000000	0.000000	0.000000	0.000000	0.000000	0.000000	0.000000	0.000000
0.015000	-0.017258	-0.317052	0.162599	0.063197	0.040627	0.109749	-0.125504	-0.086268	0.010342	0.099146	0.066898	0.027437	0.146525	0.146525	1.335348	0.932123	0.000000	0.000000	0.000000	0.000000	0.000000	0.000000	0.000000	0.000000	0.000000	0.000000	0.000000	0.000000	0.000000	0.000000	0.000000	0.000000	0.000000	0.000000	0.000000	0.000000	0.000000	0.000000
0.020000	-0.017303	-0.316911	0.162673	0.063592	0.040980	0.109995	-0.125421	-0.086708	0.011326	0.099471	0.067417	0.027437	0.146525	0.146525	1.335536	0.936857	0.000000	0.000000	0.000000	0.000000	0.000000	0.000000	0.000000	0.000000	0.000000	0.000000	0.000000	0.000000	0.000000	0.000000	0.000000	0.000000	0.000000	0.000000	0.000000	0.000000	0.000000	0.000000
0.025000	-0.017350	-0.316761	0.162733	0.063996	0.041342	0.110242	-0.125320	-0.087182	0.012365	0.099805	0.067956	0.027437	0.146525	0.146525	1.335763	0.941534	0.000000	0.000000	0.000000	0.000000	0.000000	0.000000	0.000000	0.000000	0.000000	0.000000	0.000000	0.000000	0.000000	0.000000	0.000000	0.000000	0.000000	0.000000	0.000000	0.000000	0.000000	0.000000
0.030000	-0.017398	-0.316603	0.162785	0.064409	0.041712	0.110492	-0.125205	-0.087682	0.013453	0.100149	0.068514	0.027437	0.146525	0.146525	1.336029	0.946154	0.000000	0.000000	0.000000	0.000000	0.000000	0.000000	0.000000	0.000000	0.000000	0.000000	0.000000	0.000000	0.000000	0.000000	0.000000	0.000000	0.000000	0.000000	0.000000	0.000000	0.000000	0.000000
0.035000	-0.017447	-0.316437	0.162830	0.064834	0.042093	0.110749	-0.125079	-0.088202	0.014583	0.100502	0.069090	0.027437	0.146525	0.146525	1.336336	0.950718	0.000000	0.000000	0.000000	0.000000	0.000000	0.000000	0.000000	0.000000	0.000000	0.000000	0.000000	0.000000	0.000000	0.000000	0.000000	0.000000	0.000000	0.000000	0.000000	0.000000	0.000000	0.000000
0.040000	-0.017497	-0.316265	0.162872	0.065270	0.042483	0.111014	-0.124941	-0.088739	0.015754	0.100864	0.069683	0.027437	0.146525	0.146525	1.336686	0.955225	0.000000	0.000000	0.000000	0.000000	0.000000	0.000000	0.000000	0.000000	0.000000	0.000000	0.000000	0.000000	0.000000	0.000000	0.000000	0.000000	0.000000	0.000000	0.000000	0.000000	0.000000	0.000000
0.045000	-0.017550	-0.316085	0.162909	0.065717	0.042883	0.111287	-0.124793	-0.089293	0.016965	0.101235	0.070294	0.027437	0.146525	0.146525	1.337081	0.959678	0.000000	0.000000	0.000000	0.000000	0.000000	0.000000	0.000000	0.000000	0.000000	0.000000	0.000000	0.000000	0.000000	0.000000	0.000000	0.000000	0.000000	0.000000	0.000000	0.000000	0.000000	0.000000
0.050000	-0.017604	-0.315900	0.162944	0.066176	0.043293	0.111570	-0.124634	-0.089860	0.018213	0.101614	0.070921	0.027437	0.146525	0.146525	1.337521	0.964077	0.000000	0.000000	0.000000	0.000000	0.000000	0.000000	0.000000	0.000000	0.000000	0.000000	0.000000	0.000000	0.000000	0.000000	0.000000	0.000000	0.000000	0.000000	0.000000	0.000000	0.000000	0.000000
0.055000	-0.017660	-0.315707	0.162975	0.066646	0.043713	0.111861	-0.124465	-0.090442	0.019500	0.102002	0.071564	0.027437	0.146525	0.146525	1.338009	0.968422	0.000000	0.000000	0.000000	0.000000	0.000000	0.000000	0.000000	0.000000	0.000000	0.000000	0.000000	0.000000	0.000000	0.000000	0.000000	0.000000	0.000000	0.000000	0.000000	0.000000	0.000000	0.000000
0.060000	-0.017717	-0.315509	0.163003	0.067127	0.044142	0.112162	-0.124285	-0.091036	0.020823	0.102397	0.072224	0.027437	0.146525	0.146525	1.338545	0.972714	0.000000	0.000000	0.000000	0.000000	0.000000	0.000000	0.000000	0.000000	0.000000	0.000000	0.000000	0.000000	0.000000	0.000000	0.000000	0.000000	0.000000	0.000000	0.000000	0.000000	0.000000	0.000000
0.065000	-0.017777	-0.315304	0.163029	0.067620	0.044580	0.112473	-0.124094	-0.091643	0.022183	0.102800	0.072899	0.027437	0.146525	0.146525	1.339132	0.976954	0.000000	0.000000	0.000000	0.000000	0.000000	0.000000	0.000000	0.000000	0.000000	0.000000	0.000000	0.000000	0.000000	0.000000	0.000000	0.000000	0.000000	0.000000	0.000000	0.000000	0.000000	0.000000
0.070000	-0.017838	-0.315093	0.163050	0.068123	0.045028	0.112794	-0.123892	-0.092261	0.023579	0.103210	0.073590	0.027437	0.146525	0.146525	1.339769	0.981142	0.000000	0.000000	0.000000	0.000000	0.000000	0.000000	0.000000	0.000000	0.000000	0.000000	0.000000	0.000000	0.000000	0.000000	0.000000	0.000000	0.000000	0.000000	0.000000	0.000000	0.000000	0.000000
0.075000	-0.017902	-0.314876	0.163069	0.068637	0.045484	0.113125	-0.123679	-0.092890	0.025011	0.103627	0.074296	0.027437	0.146525	0.146525	1.340459	0.985279	0.000000	0.000000	0.000000	0.000000	0.000000	0.000000	0.000000	0.000000	0.000000	0.000000	0.000000	0.000000	0.000000	0.000000	0.000000	0.000000	0.000000	0.000000	0.000000	0.000000	0.000000	0.000000
